<svg height='100px' width='100px'  fill="#FFFFFF" xmlns="http://www.w3.org/2000/svg" xmlns:xlink="http://www.w3.org/1999/xlink" xml:space="preserve" version="1.1" style="shape-rendering:geometricPrecision;text-rendering:geometricPrecision;image-rendering:optimizeQuality;" viewBox="0 0 443 443" x="0px" y="0px" fill-rule="evenodd" clip-rule="evenodd"><defs><style type="text/css">
   
    .fil0 {fill:#FFFFFF}
   
  </style></defs><g><path class="fil0" d="M221 0c123,0 222,99 222,221 0,123 -99,222 -222,222 -122,0 -221,-99 -221,-222 0,-122 99,-221 221,-221zm0 46c18,0 33,15 33,33l0 109 109 0c19,0 34,15 34,33 0,18 -15,33 -34,33l-109 0 0 109c0,19 -15,34 -33,34 -18,0 -33,-15 -33,-34l0 -109 -109 0c-18,0 -33,-15 -33,-33 0,-18 15,-33 33,-33l109 0 0 -109c0,-18 15,-33 33,-33z"></path></g></svg>