<svg height='100px' width='100px'  fill="#B30000" xmlns="http://www.w3.org/2000/svg" xmlns:xlink="http://www.w3.org/1999/xlink" version="1.1" x="0px" y="0px" viewBox="-247 370.9 100 100" style="enable-background:new -247 370.9 100 100;" xml:space="preserve"><path d="M-155.1,395c-4.9-6.1-12.2-9.4-21.9-9.6c-3.1-0.1-6.2,0.5-9.4,1.1c-1.3,0.3-2.7,0.5-4.1,0.7c0.5-7.6,3.5-12.1,3.5-12.2  l2.1-3.1h-12.3l-0.4,1.5c0,0.2-0.9,3.9-1.2,10.5c-2.6-3.9-7.5-8.9-15.9-10.9c-14.2-3.2-27.9,4.8-28.4,5.2l-1.8,1l1.1,1.7  c0.2,0.3,3.5,5.4,9.2,10c-10.3,7.9-13.6,23.8-9.1,45.1c4.2,20.3,13.5,30.9,30.3,34.5c0.9,0.2,1.8,0.3,2.8,0.3c2.1,0,4.4-0.4,6.8-0.8  c2.3-0.4,4.7-0.8,6.8-0.8c2.2,0,4.6,0.4,6.8,0.8c3.4,0.6,6.6,1.2,9.6,0.5c16.8-3.6,26.1-14.2,30.3-34.5  C-147.6,423.4-146.3,406-155.1,395z M-194,375.9h2.1c-1.1,2.5-2.3,6.5-2.6,11.7c-0.2,0-0.3,0-0.5,0  C-194.9,382-194.4,377.9-194,375.9z M-239.1,380.6c4.1-2,13.8-5.8,23.5-3.6c9.9,2.3,14,9.6,15.3,12.4c-2.4,2.1-9.4,7.1-19.3,4.8  C-229.3,392-236.3,384.1-239.1,380.6z M-189.4,447.9c1.5,0,2.8-0.5,3.9-1.5c2.5-2.5,1.9-7-1.4-10.2c-2.4-2.4-5.5-3.4-7.9-2.7v-13.1  c0.5,0.1,1,0.2,1.5,0.2c2.1,0,4.4-1,6.4-2.9c3.3-3.3,3.9-7.8,1.4-10.2c-2.2-2.2-6.2-1.9-9.3,0.6v-12.8c2.7-0.3,5.4-0.9,8.1-1.5  c3.1-0.7,6.1-1.4,8.3-1.4c7.3,0.2,13.4,1.2,16.6,5.3c4.7,5.9,8.6,18.8,5.3,36.3c-3.2,16.5-11.9,26.9-24.7,29.6  c-1.9,0.4-6.9-0.1-9.7-0.5c-1.2-0.2-2.5-0.4-3.8-0.5v-16.8C-193.1,447.2-191.2,447.9-189.4,447.9z M-194.3,437.6  c0.2-0.2,0.6-0.3,1-0.3c1,0,2.4,0.6,3.5,1.7c1.7,1.7,2.1,3.8,1.4,4.6c-0.7,0.7-2.9,0.3-4.6-1.4  C-194.6,440.5-195.1,438.3-194.3,437.6z M-192.9,411.7c1.2-1.2,2.6-1.7,3.5-1.7c0.4,0,0.8,0.1,1,0.3c0.7,0.7,0.3,2.9-1.4,4.6  c-1.7,1.7-3.8,2.1-4.6,1.4C-195.1,415.5-194.6,413.3-192.9,411.7z"></path><path d="M-177.7,426.9c0-3.5-3.6-6.2-8.2-6.2s-8.2,2.7-8.2,6.2s3.6,6.2,8.2,6.2S-177.7,430.4-177.7,426.9z M-185.9,429.1  c-2.4,0-4.2-1.2-4.2-2.2s1.8-2.2,4.2-2.2c2.4,0,4.2,1.2,4.2,2.2S-183.5,429.1-185.9,429.1z"></path></svg>