<svg height='100px' width='100px'  fill="#FFFFFF" xmlns="http://www.w3.org/2000/svg" xmlns:xlink="http://www.w3.org/1999/xlink" version="1.1" x="0px" y="0px" viewBox="0 0 50 50" style="enable-background:new 0 0 50 50;" xml:space="preserve"><style type="text/css">
	.st0{fill:none;stroke:#FFFFFF;stroke-width:2;stroke-linejoin:round;stroke-miterlimit:10;}
	.st1{fill:none;stroke:#FFFFFF;stroke-width:2;stroke-miterlimit:10;}
	.st2{fill:none;stroke:#FFFFFF;stroke-width:2;stroke-linecap:round;stroke-miterlimit:10;}
	.st3{fill:none;stroke:#FFFFFF;stroke-width:2;stroke-miterlimit:10;stroke-dasharray:2.0674,3.1011;}
	.st4{fill:none;stroke:#FFFFFF;stroke-width:2;stroke-miterlimit:10;stroke-dasharray:2,2;}
	.st5{fill:none;stroke:#FFFFFF;stroke-width:2;stroke-linejoin:round;stroke-miterlimit:10;stroke-dasharray:2,2;}
</style><g><path class="st1" d="M48,27.8c0-2.8-2.2-5.1-5-5.4c0.5-1,0.7-2.2,0.6-3.4c-0.2-3.8-3.5-6.8-7.3-6.9c-3.6,0-6.6,2.4-7.3,5.7   c-1.1-1.3-2.8-2.1-4.7-1.9c-2.1,0.2-3.8,1.6-4.5,3.5c-0.4,1.1-0.4,2.2-0.1,3.2c-2.1,0.8-3.6,2.8-3.6,5.1c0,3.1,2.4,5.2,5.6,5.2h0.1   c0.6,1.4,2.4,1.9,3.3,1.9c1.7,0,2.6-0.3,4.3-1.9c0,0,1.2,1.9,4,1.9c2.7,0,4-1.6,4.2-1.8C44.3,36.2,48,30.9,48,27.8z"></path><g><g><ellipse class="st1" cx="15" cy="7.6" rx="13" ry="5.6"></ellipse><path class="st1" d="M19.4,20.9c-1.4,0.2-2.9,0.3-4.4,0.3c-7.2,0-13-2.5-13-5.6"></path><path class="st1" d="M16.1,29.1c-0.4,0-0.8,0-1.1,0c-7.2,0-13-2.5-13-5.6"></path><path class="st1" d="M25.2,34.9C22.8,36.1,19,37,15,37c-7.2,0-13-2.5-13-5.6"></path><line class="st1" x1="28" y1="17" x2="28" y2="7.6"></line><line class="st1" x1="2" y1="31.4" x2="2" y2="7.6"></line></g><line class="st1" x1="15" y1="37" x2="15" y2="42"></line><circle class="st1" cx="15" cy="45" r="3"></circle><line class="st1" x1="18" y1="45" x2="27" y2="45"></line><line class="st1" x1="3" y1="45" x2="12" y2="45"></line></g></g></svg>