<svg height='100px' width='100px'  fill="#000000" xmlns="http://www.w3.org/2000/svg" xmlns:xlink="http://www.w3.org/1999/xlink" version="1.1" x="0px" y="0px" viewBox="0 0 50 50" style="enable-background:new 0 0 50 50;" xml:space="preserve"><style type="text/css">
	.st0{fill:none;stroke:#000000;stroke-width:2;stroke-linejoin:round;stroke-miterlimit:10;}
	.st1{fill:none;stroke:#000000;stroke-width:2;stroke-miterlimit:10;}
	.st2{fill:none;stroke:#000000;stroke-width:2;stroke-linecap:round;stroke-miterlimit:10;}
	.st3{fill:none;stroke:#000000;stroke-width:2;stroke-miterlimit:10;stroke-dasharray:2.0674,3.1011;}
	.st4{fill:none;stroke:#000000;stroke-width:2;stroke-miterlimit:10;stroke-dasharray:2,2;}
	.st5{fill:none;stroke:#000000;stroke-width:2;stroke-linejoin:round;stroke-miterlimit:10;stroke-dasharray:2,2;}
</style><g><path class="st1" d="M35.6,28.4c5.2,0,8.4-3.3,8.4-7.4c0-3.6-2.5-6.5-5.8-7.3c0.5-1.2,0.7-2.3,0.6-3.7c-0.3-4.4-4.2-8-8.7-8   c-4.2,0-7.8,2.8-8.7,6.7c-1.3-1.5-3.3-2.5-5.6-2.2c-2.5,0.2-4.5,1.9-5.4,4.1c-0.7,1.7-0.1,3.7-0.1,3.7C7.8,15.4,6,18,6,21   c0,4.1,3.4,7.4,8.4,7.4H35.6z"></path><g><polyline class="st1" points="37,28.4 37,39 42,39   "></polyline><circle class="st1" cx="45" cy="39" r="3"></circle></g><g><polyline class="st1" points="13,28.4 13,39 8,39   "></polyline><circle class="st1" cx="5" cy="39" r="3"></circle></g><g><line class="st1" x1="30" y1="29" x2="30" y2="42"></line><circle class="st1" cx="30" cy="45" r="3"></circle></g><g><line class="st1" x1="20" y1="29" x2="20" y2="42"></line><circle class="st1" cx="20" cy="45" r="3"></circle></g></g></svg>