<svg height='100px' width='100px'  fill="#0066CC" xmlns:x="http://ns.adobe.com/Extensibility/1.0/" xmlns:i="http://ns.adobe.com/AdobeIllustrator/10.0/" xmlns:graph="http://ns.adobe.com/Graphs/1.0/" xmlns="http://www.w3.org/2000/svg" xmlns:xlink="http://www.w3.org/1999/xlink" version="1.1" x="0px" y="0px" viewBox="-949 951 100 100" style="enable-background:new -949 951 100 100;" xml:space="preserve"><g><g i:extraneous="self"><g><g><path d="M-863.8,990.8c-4.6-0.3-8.8-0.1-14.3,0.4c-2.3,0.2-3.2-3-2.7-7.9c0.7-8.5,1.7-14.5,2.4-19.4c1.4-8.8-11.1-10.3-13.8-3.5      c-2.6,6.5-9.8,29.5-23.7,35.9c-1.6,0.7-2.6,2.4-2.6,4.2c0,7.5,0,26.1-0.1,33.9c0,2.1,1.4,3.9,3.4,4.5c7.8,2.1,27.2,7,40.9,7      c8.9,0,14.1-0.7,16-9c2-8.7,4.5-21.5,6.4-31.4C-849.9,994.9-854.5,991.4-863.8,990.8z"></path></g><g><path d="M-925.7,994.2h-18.5c-1.2,0-2.2,1-2.2,2.2v43.5c0,1.2,1,2.2,2.2,2.2h18.5c1.2,0,2.2-1,2.2-2.2v-43.5      C-923.5,995.2-924.5,994.2-925.7,994.2z M-935,1035c-2.3,0-4.1-1.8-4.1-4.1s1.8-4.1,4.1-4.1c2.3,0,4.1,1.8,4.1,4.1      S-932.7,1035-935,1035z"></path></g></g></g></g></svg>