<svg height='100px' width='100px'  fill="#0066CC" xmlns="http://www.w3.org/2000/svg" xmlns:xlink="http://www.w3.org/1999/xlink" viewBox="0 0 78 78" version="1.1" x="0px" y="0px"><title>Combined Shape</title><desc>Created with Sketch.</desc><g stroke="none" stroke-width="1" fill="none" fill-rule="evenodd"><g transform="translate(-2214.000000, -226.000000)" fill="#0066CC"><path d="M2214,265 C2214,243.460895 2231.45616,226 2253,226 C2274.53911,226 2292,243.456159 2292,265 C2292,286.539105 2274.54384,304 2253,304 C2231.46089,304 2214,286.543841 2214,265 Z M2260.02554,283.940633 C2261.68339,283.930844 2262.15188,282.915795 2261.06548,281.66603 L2236.77061,253.717989 C2235.6871,252.47155 2234.61518,252.781738 2234.37342,254.431244 L2230.45766,281.147663 C2230.21724,282.788022 2231.35705,284.109915 2233.02415,284.100071 L2260.02554,283.940633 Z M2269.92485,274.857649 C2269.65583,276.493562 2268.57999,276.797493 2267.51557,275.528959 L2243.71217,247.16117 C2242.65057,245.896011 2243.12463,244.88581 2244.79165,244.905063 L2271.7917,245.216889 C2273.44947,245.236034 2274.57679,246.568603 2274.30627,248.213638 L2269.92485,274.857649 Z"></path></g></g></svg>