<svg height='100px' width='100px'  fill="#0066bb" xmlns:dc="http://purl.org/dc/elements/1.1/" xmlns:cc="http://creativecommons.org/ns#" xmlns:rdf="http://www.w3.org/1999/02/22-rdf-syntax-ns#" xmlns:svg="http://www.w3.org/2000/svg" xmlns="http://www.w3.org/2000/svg" xmlns:sodipodi="http://sodipodi.sourceforge.net/DTD/sodipodi-0.dtd" xmlns:inkscape="http://www.inkscape.org/namespaces/inkscape" viewBox="0 0 32 32" version="1.1" x="0px" y="0px"><g transform="translate(0,-1020.3622)"><path d="m 3.7117251,1024.2991 a 0.50123674,0.50158687 0 0 0 -0.047112,0 0.50123674,0.50158687 0 0 0 -0.023055,0 0.50123662,0.50158675 0 0 0 -0.018043,0 0.50123674,0.50158687 0 0 0 -0.010024,0 0.50123662,0.50158675 0 0 0 -0.047112,0.012 0.50123674,0.50158687 0 0 0 -0.010024,0 0.50123662,0.50158675 0 0 0 -0.041097,0.017 0.50123662,0.50158675 0 0 0 -0.039093,0.02 0.50123674,0.50158687 0 0 0 -0.010024,0 0.50123662,0.50158675 0 0 0 -0.043102,0.027 0.50123662,0.50158675 0 0 0 -0.039093,0.029 0.50123662,0.50158675 0 0 0 -0.033078,0.033 0.50123674,0.50158687 0 0 0 -0.010024,0.01 0.50123662,0.50158675 0 0 0 -0.1037456,0.1646 0.50123662,0.50158675 0 0 0 -0.035083,0.1822 0.50123662,0.50158675 0 0 0 0,0.01 l -0.1898495,2.1785 c -0.087206,1.0291 0.7092793,1.9285 1.7463346,2.0219 l 3.1519625,0.2802 c 1.0370554,0.093 1.9779831,-0.6519 2.0654903,-1.681 l 0.1487518,-1.728 15.397756,1.3871 a 0.5014451,0.50179538 0 1 0 0.09021,-0.9992 l -21.8584513,-1.9689 a 0.50123662,0.50158675 0 0 0 -0.010024,0 0.50123674,0.50158687 0 0 0 -0.051121,0 z" style="color:#000000;font-style:normal;font-variant:normal;font-weight:normal;font-stretch:normal;font-size:medium;line-height:normal;font-family:sans-serif;text-indent:0;text-align:start;text-decoration:none;text-decoration-line:none;text-decoration-style:solid;text-decoration-color:#000000;letter-spacing:normal;word-spacing:normal;text-transform:none;direction:ltr;writing-mode:lr-tb;baseline-shift:baseline;text-anchor:start;white-space:normal;clip-rule:nonzero;display:inline;overflow:visible;visibility:visible;opacity:1;isolation:auto;mix-blend-mode:normal;color-interpolation:sRGB;color-interpolation-filters:linearRGB;solid-color:#000000;solid-opacity:1;fill:#0066bb;fill-opacity:1;fill-rule:evenodd;stroke:none;stroke-width:3.77952695px;stroke-linecap:round;stroke-linejoin:round;stroke-miterlimit:4;stroke-dasharray:none;stroke-dashoffset:0;stroke-opacity:1;color-rendering:auto;image-rendering:auto;shape-rendering:auto;text-rendering:auto;enable-background:accumulate"></path><path d="m 25.587819,1026.2955 a 0.50123662,0.50158675 0 0 0 -0.04912,0.01 l 0,0 a 0.50123662,0.50158675 0 0 0 -0.133115,0.039 l -14.692987,5.411 a 0.50123674,0.50158687 0 0 0 -0.05513,0.016 l -8.3008533,3.0582 a 0.50123674,0.50158687 0 0 0 -0.02105,0.01 0.50123662,0.50158675 0 0 0 -0.023055,0.012 0.50123662,0.50158675 0 0 0 -0.199773,0.7817 l 1.0963959,3.0346 c 0.4784327,1.3302 1.9672576,2.0076 3.3008149,1.5165 l 4.3794689,-1.6144 c 1.333557,-0.4912 2.040832,-1.971 1.562299,-3.3011 l -0.978918,-2.7232 14.281914,-5.2584 a 0.50123662,0.50158675 0 0 0 -0.16449,-0.9834 z" style="color:#000000;font-style:normal;font-variant:normal;font-weight:normal;font-stretch:normal;font-size:medium;line-height:normal;font-family:sans-serif;text-indent:0;text-align:start;text-decoration:none;text-decoration-line:none;text-decoration-style:solid;text-decoration-color:#000000;letter-spacing:normal;word-spacing:normal;text-transform:none;direction:ltr;writing-mode:lr-tb;baseline-shift:baseline;text-anchor:start;white-space:normal;clip-rule:nonzero;display:inline;overflow:visible;visibility:visible;opacity:1;isolation:auto;mix-blend-mode:normal;color-interpolation:sRGB;color-interpolation-filters:linearRGB;solid-color:#000000;solid-opacity:1;fill:#0066bb;fill-opacity:1;fill-rule:evenodd;stroke:none;stroke-width:3.77952695px;stroke-linecap:round;stroke-linejoin:round;stroke-miterlimit:4;stroke-dasharray:none;stroke-dashoffset:0;stroke-opacity:1;color-rendering:auto;image-rendering:auto;shape-rendering:auto;text-rendering:auto;enable-background:accumulate"></path><path d="m 25.568172,1026.2916 a 0.5012367,0.50158683 0 0 0 -0.348425,0.1567 l -11.223873,11.1141 a 0.50123674,0.50158687 0 0 0 -0.05313,0.045 l -7.7547602,7.6778 a 0.50123674,0.50158687 0 0 0 -0.029069,0.033 0.50123674,0.50158687 0 0 0 -0.016038,0.019 0.5012367,0.50158683 0 0 0 -0.016038,0.02 0.5012367,0.50158683 0 0 0 0.1800262,0.7601 l 2.8191746,2.7821 c 1.2963691,1.2834 3.4022551,1.2834 4.6986241,0 l 3.7589,-3.7165 c 1.296369,-1.2835 1.296369,-3.3891 0,-4.6725 l -2.572491,-2.5528 10.910632,-10.8046 a 0.5012367,0.50158683 0 0 0 -0.354439,-0.8678 z" style="color:#000000;font-style:normal;font-variant:normal;font-weight:normal;font-stretch:normal;font-size:medium;line-height:normal;font-family:sans-serif;text-indent:0;text-align:start;text-decoration:none;text-decoration-line:none;text-decoration-style:solid;text-decoration-color:#000000;letter-spacing:normal;word-spacing:normal;text-transform:none;direction:ltr;writing-mode:lr-tb;baseline-shift:baseline;text-anchor:start;white-space:normal;clip-rule:nonzero;display:inline;overflow:visible;visibility:visible;opacity:1;isolation:auto;mix-blend-mode:normal;color-interpolation:sRGB;color-interpolation-filters:linearRGB;solid-color:#000000;solid-opacity:1;fill:#0066bb;fill-opacity:1;fill-rule:evenodd;stroke:none;stroke-width:3.77952743px;stroke-linecap:round;stroke-linejoin:round;stroke-miterlimit:4;stroke-dasharray:none;stroke-dashoffset:0;stroke-opacity:1;color-rendering:auto;image-rendering:auto;shape-rendering:auto;text-rendering:auto;enable-background:accumulate"></path><path style="color:#000000;font-style:normal;font-variant:normal;font-weight:normal;font-stretch:normal;font-size:medium;line-height:normal;font-family:sans-serif;text-indent:0;text-align:start;text-decoration:none;text-decoration-line:none;text-decoration-style:solid;text-decoration-color:#000000;letter-spacing:normal;word-spacing:normal;text-transform:none;direction:ltr;block-progression:tb;writing-mode:lr-tb;baseline-shift:baseline;text-anchor:start;white-space:normal;clip-rule:nonzero;display:inline;overflow:visible;visibility:visible;opacity:1;isolation:auto;mix-blend-mode:normal;color-interpolation:sRGB;color-interpolation-filters:linearRGB;solid-color:#000000;solid-opacity:1;fill:#0066bb;fill-opacity:1;fill-rule:nonzero;stroke:none;stroke-width:0.99999994;stroke-linecap:round;stroke-linejoin:round;stroke-miterlimit:4;stroke-dasharray:none;stroke-dashoffset:0;stroke-opacity:1;color-rendering:auto;image-rendering:auto;shape-rendering:auto;text-rendering:auto;enable-background:accumulate" d="m 25.203125,1022.9609 c -0.790314,0.1923 -1.513711,0.6606 -2.013672,1.3653 a 0.50017956,0.50017956 0 0 0 0.816406,0.5781 c 0.71615,-1.0094 2.055194,-1.3351 3.154297,-0.7676 1.099103,0.5675 1.610219,1.8485 1.203125,3.0176 -0.407093,1.1691 -1.60296,1.8561 -2.816406,1.6172 a 0.50004997,0.50004997 0 1 0 -0.193359,0.9805 c 1.695028,0.3337 3.384813,-0.6356 3.953125,-2.2676 0.568311,-1.6321 -0.152384,-3.4437 -1.6875,-4.2364 -0.767558,-0.3963 -1.625702,-0.4794 -2.416016,-0.2871 z"></path></g></svg>