<svg height='100px' width='100px'  fill="#0066CC" xmlns="http://www.w3.org/2000/svg" xmlns:xlink="http://www.w3.org/1999/xlink" version="1.1" x="0px" y="0px" viewBox="0 0 100 100" style="enable-background:new 0 0 100 100;" xml:space="preserve"><g><path d="M42.3769531,66.2128906h44.2226563V17.6289063H13.4003906v48.5839844h11.7011719   c0.25,0,0.4882813,0.1044922,0.6591797,0.2871094c0.1699219,0.1826172,0.2568359,0.4287109,0.2382813,0.6777344   l-1.0898438,15.1933594l16.8496094-15.9121094C41.9257813,66.3007813,42.1474609,66.2128906,42.3769531,66.2128906z    M39.2519531,56.0898438c-0.2861328-0.0126953-0.5488281-0.1611328-0.7080078-0.3994141s-0.1953125-0.5371094-0.0976563-0.8066406   l3.5449219-9.7744141c-1.9609375-0.6474609-6.3798828-2.4814453-8.3759766-6.34375   c-1.3164063-2.5488281-1.3291016-5.4814453-0.0380859-8.7167969c0.0898438-0.2246094,0.2666016-0.4033203,0.4892578-0.4970703   c0.2236328-0.0917969,0.4736328-0.0917969,0.6972656,0.0019531l13.2509766,5.6103516   c0.3603516-1.7148438,1.3564453-4.8251953,4.0009766-6.4287109c2.2304688-1.3505859,5.0771484-1.3193359,8.4648438,0.0966797   c1.6992188,0.7089844,6.3388672,2.5917969,6.3388672,2.5917969c0.2949219,0.1201172,0.5048828,0.3876953,0.5517578,0.703125   c0.0458984,0.3154297-0.078125,0.6318359-0.3261719,0.8320313l-4.7851563,3.8544922   c0.3125,2.2802734,0.8974609,10.8935547-7.1875,14.9970703c-7.9228516,4.0214844-14.0361328,4.2841797-15.4960938,4.2841797   C39.3925781,56.0947266,39.2832031,56.0908203,39.2519531,56.0898438z"></path></g></svg>