<svg height='100px' width='100px'  fill="#000000" xmlns="http://www.w3.org/2000/svg" xmlns:xlink="http://www.w3.org/1999/xlink" version="1.1" x="0px" y="0px" viewBox="0 0 100 100" style="enable-background:new 0 0 100 100;" xml:space="preserve"><path d="M95.9,37.8H62.3V4.1c0-1.7-1.4-3.1-3.1-3.1H40.8c-1.7,0-3.1,1.4-3.1,3.1v33.7H4.1c-1.7,0-3.1,1.4-3.1,3.1v18.4  c0,1.7,1.4,3.1,3.1,3.1h33.7v33.7c0,1.7,1.4,3.1,3.1,3.1h18.4c1.7,0,3.1-1.4,3.1-3.1V62.3h33.7c1.7,0,3.1-1.4,3.1-3.1V40.8  C99,39.1,97.6,37.8,95.9,37.8z"></path></svg>